PathFileType	4	(X/Y/Z)	../Python\walking\Walking18\task.trc
DataRate	CameraRate	NumFrames	NumMarkers	Units	OrigDataRate	OrigDataStartFrame	OrigNumFrames
200.000000	200.000000	4	30	mm	200.000000	0	439
Frame#	Time	RBAK			CLAV			STRN			RASI			LASI			PE01			RTH1			RTH2			RTH3			RTB3			RHEE			RD5M			RTOE			LTH2			LTH3			LTB2			LTB3			LHEE			LTOE			LD5M			LTB1			C7			RTB1			RTB2			LPSI			PE03			PE02			RPSI			LTH1			T10			
		X1	Y1	Z1	X2	Y2	Z2	X3	Y3	Z3	X4	Y4	Z4	X5	Y5	Z5	X6	Y6	Z6	X7	Y7	Z7	X8	Y8	Z8	X9	Y9	Z9	X10	Y10	Z10	X11	Y11	Z11	X12	Y12	Z12	X13	Y13	Z13	X14	Y14	Z14	X15	Y15	Z15	X16	Y16	Z16	X17	Y17	Z17	X18	Y18	Z18	X19	Y19	Z19	X20	Y20	Z20	X21	Y21	Z21	X22	Y22	Z22	X23	Y23	Z23	X24	Y24	Z24	X25	Y25	Z25	X26	Y26	Z26	X27	Y27	Z27	X28	Y28	Z28	X29	Y29	Z29	X30	Y30	Z30	

1	0	-1957.175781250001	1229.7861328125	281.6788330078126	-1807.283569335938	1217.678100585938	143.8316802978516	-1746.622314453126	1035.545654296875	158.7212371826172	-1784.570434570313	834.9633789062505	314.6368408203126	-1773.762817382813	845.8015747070317	85.82245635986331	-1971.264770507813	920.2101440429692	205.1809082031251	-1928.866088867188	561.557067871094	337.1456909179689	-1932.357055664063	483.1065673828127	320.1688232421876	-1891.678100585938	528.9732666015627	325.8999938964845	nan	nan	nan	-2287.944091796876	142.2435150146485	221.5783233642579	-2195.923095703126	28.34029769897462	300.5156250000001	-2161.114257812501	22.15829849243165	252.2580413818361	-1733.648803710938	540.7208251953127	59.44911956787112	-1690.834960937501	604.883239746094	58.89137268066409	-1670.443603515626	200.2012786865236	80.57340240478518	-1636.395751953126	234.5149230957032	87.43678283691409	-1684.936889648438	28.00376701354982	136.459213256836	-1495.394165039063	30.69245719909669	142.9558105468751	-1531.018310546875	13.68054008483887	92.6997985839844	-1677.140136718751	278.5585021972657	69.39142608642581	-1926.990722656251	1315.381713867188	157.2864990234376	nan	nan	nan	-2110.617675781251	284.664764404297	308.052947998047	-1977.907470703126	881.659301757813	163.754623413086	-1986.741943359376	863.734008789063	172.2216339111329	-1991.729980468751	858.9298706054692	222.2339172363282	-1977.015747070313	885.9175415039067	251.1388702392579	-1735.365966796876	601.290222167969	47.68686676025392	-1961.113159179688	1019.813049316407	202.1650848388673	
2	0.005	-1950.325439453126	1230.860717773438	280.7500305175782	-1799.834472656251	1219.008666992188	143.4715728759766	-1738.994018554688	1036.941040039063	158.4956970214844	-1777.448486328126	835.5426635742192	313.1641540527345	-1766.763549804688	847.2687377929692	84.63193511962893	-1964.342285156251	920.9323730468755	204.8178710937501	-1918.341674804688	560.2465820312502	337.0321044921876	-1920.544067382813	481.7000122070315	320.5946655273439	-1880.643066406251	528.2200317382815	325.8105773925782	nan	nan	nan	-2278.091308593751	148.8703155517579	218.8197631835939	-2195.998779296876	30.71098709106447	298.736053466797	-2162.321289062501	22.99615097045899	251.4791870117189	-1728.420043945313	540.9546508789065	59.27288436889651	-1683.935791015626	604.0885009765627	58.41248321533206	-1667.913818359376	200.3421020507814	80.56375122070315	-1633.765258789063	234.2925262451173	87.79067993164065	-1684.807617187501	28.16995239257814	136.6048431396485	-1494.858032226563	30.07483863830568	143.2063446044922	-1530.916137695313	13.61406517028809	92.75739288330081	-1673.562988281251	278.8035888671876	69.38398742675784	-1919.728515625001	1316.60693359375	156.480941772461	nan	nan	nan	-2101.443359375001	286.6114196777345	307.2198181152345	-1970.764526367188	882.8344116210942	163.0557708740235	-1979.683959960938	864.504028320313	171.7653198242188	-1984.312133789063	859.5363769531255	221.811492919922	-1969.593017578126	886.5462036132817	250.7273864746095	-1728.911987304688	601.322448730469	47.16818237304689	-1953.789794921876	1020.901306152344	201.3691711425782	
3	0.01	-1943.522827148438	1231.944091796875	279.8385620117189	-1792.423828125001	1220.342651367188	143.1520233154297	-1731.426269531251	1038.331665039063	158.3108673095704	-1770.396240234376	836.1574707031255	311.7553710937501	-1759.794311523438	848.683227539063	83.48294830322268	-1957.482299804688	921.6862182617192	204.4126129150392	-1907.835571289063	559.0587158203127	336.9266052246095	-1908.762451171876	480.429382324219	321.0061950683595	-1869.635864257813	527.5881958007815	325.7663879394532	-2091.984130859376	240.5261383056642	296.8870544433595	-2267.899169921876	155.3570861816407	216.2351379394532	-2195.275390625001	33.36475753784181	296.9584045410157	-2162.667236328126	24.05360603332521	250.6811065673829	-1723.406005859376	541.176452636719	59.04859924316409	-1677.380615234376	603.2850341796877	57.9231872558594	-1665.525512695313	200.4843597412111	80.54146575927737	-1631.284912109376	234.0739898681642	88.08988952636722	-1684.695434570313	28.31880950927736	136.7364349365235	-1494.382568359375	29.51691627502443	143.4538879394532	-1530.825073242188	13.55680179595948	92.81255340576175	-1670.159790039063	279.0359191894532	69.34571075439456	-1912.494018554688	1317.843872070313	155.7069549560547	nan	nan	nan	-2091.868408203126	288.4710693359376	306.4545898437501	-1963.670166015626	884.0249023437505	162.3264923095704	-1972.680175781251	865.302856445313	171.2660369873047	-1976.982177734376	860.1782836914067	221.3424377441407	-1962.267578125001	887.1995239257817	250.2609252929689	-1722.711303710938	601.3616333007815	46.6234588623047	-1946.515380859376	1022.009338378907	200.5529022216798	
4	0.015	-1936.767700195313	1233.03662109375	278.9444274902345	-1785.051879882813	1221.680053710938	142.8730010986329	-1723.918945312501	1039.717529296875	158.1667480468751	-1763.413574218751	836.8078002929692	310.4104919433595	-1752.855102539063	850.045043945313	82.37551879882815	-1950.684936523438	922.4717407226567	203.9651947021486	-1897.347778320313	557.9937133789065	336.8291625976564	-1897.012207031251	479.2951354980471	321.4033508300782	-1858.656372070313	527.0781860351565	325.767303466797	-2081.914062500001	241.6234893798829	296.333221435547	-2257.369628906251	161.702133178711	213.8240814208986	-2193.750488281251	36.29917907714845	295.1841430664064	-2162.148437500001	25.32969284057619	249.8642578125001	-1718.604980468751	541.3867797851565	58.7763481140137	-1671.167724609376	602.4750976562502	57.4223442077637	-1663.278442382813	200.6279144287111	80.50661468505862	-1628.953857421876	233.8592071533204	88.33418273925784	-1684.600219726563	28.45040321350099	136.853988647461	-1493.967041015625	29.01832962036134	143.6974487304688	-1530.744995117188	13.50853538513184	92.86507415771487	-1666.930908203126	279.2554321289064	69.27690887451175	-1905.287109375001	1319.092163085938	154.9645690917969	nan	nan	nan	-2081.893310546876	290.2442016601564	305.7572326660157	-1956.624267578126	885.2307128906255	161.5668334960938	-1965.730834960938	866.1303710937505	170.7238464355469	-1969.740112304688	860.8557128906255	220.8267974853517	-1955.039062500001	887.8775024414067	249.7395172119142	-1716.763427734376	601.4080810546877	46.0526695251465	-1939.290039062501	1023.137268066407	199.7162933349611	
